<svg width="24" height="24" viewBox="0 0 24 24" fill="none" xmlns="http://www.w3.org/2000/svg">
<g clip-path="url(#clip0_4260_56215)">
<mask id="mask0_4260_56215" style="mask-type:alpha" maskUnits="userSpaceOnUse" x="-2" y="0" width="32" height="24">
<rect x="-2" width="32" height="24" rx="2" fill="white"/>
</mask>
<g mask="url(#mask0_4260_56215)">
<rect x="-2" width="32" height="24" fill="#F1361D"/>
<path fill-rule="evenodd" clip-rule="evenodd" d="M10.4824 5.5657L11.5961 5.75557L12.4314 6.51629L12.6213 5.40258L13.382 4.56729L12.2683 4.37742L11.433 3.6167L11.2431 4.73041L10.4824 5.5657ZM13.465 9.46061L14.4301 8.87325L15.5596 8.89937L14.9723 7.93428L14.9984 6.8048L14.0333 7.39216L12.9038 7.36604L13.4912 8.33113L13.465 9.46061ZM12.1566 15.7659L11.2126 16.3866L11.1993 15.2569L10.5786 14.3129L11.7083 14.2996L12.6523 13.6789L12.6656 14.8086L13.2863 15.7526L12.1566 15.7659ZM12.9772 12.846L14.1001 12.7215L15.1127 13.2225L14.9882 12.0996L15.4892 11.087L14.3663 11.2115L13.3537 10.7105L13.4782 11.8334L12.9772 12.846Z" fill="#FFDC42"/>
<path fill-rule="evenodd" clip-rule="evenodd" d="M6.73158 11.147L3.95043 13L4.97658 9.95525L2.23158 8.05573L5.64693 8.02698L6.73158 5L7.81623 8.02698L11.2316 8.05573L8.48658 9.95525L9.51273 13L6.73158 11.147Z" fill="#FFDC42"/>
</g>
</g>
<defs>
<clipPath id="clip0_4260_56215">
<rect width="24" height="24" rx="12" fill="white"/>
</clipPath>
</defs>
</svg>
