<svg width="24" height="24" viewBox="0 0 24 24" fill="none" xmlns="http://www.w3.org/2000/svg">
<g clip-path="url(#clip0_4260_56349)">
<mask id="mask0_4260_56349" style="mask-type:alpha" maskUnits="userSpaceOnUse" x="0" y="0" width="28" height="24">
<rect x="0.25" y="0.25" width="27.5" height="23.5" rx="1.75" fill="white" stroke="white" stroke-width="0.5"/>
</mask>
<g mask="url(#mask0_4260_56349)">
<rect width="28" height="24" rx="2" fill="white"/>
<path fill-rule="evenodd" clip-rule="evenodd" d="M2 0C0.895431 0 0 0.89543 0 2V9.6H8V0H2ZM12 0V9.6H28V2C28 0.895431 27.1046 0 26 0H12ZM28 14.4H12V24H26C27.1046 24 28 23.1046 28 22V14.4ZM8 24V14.4H0V22C0 23.1046 0.895431 24 2 24H8Z" fill="#EF264D"/>
</g>
</g>
<defs>
<clipPath id="clip0_4260_56349">
<rect width="24" height="24" rx="12" fill="white"/>
</clipPath>
</defs>
</svg>
