<svg width="24" height="24" viewBox="0 0 24 24" fill="none" xmlns="http://www.w3.org/2000/svg">
<g clip-path="url(#clip0_4260_56170)">
<mask id="mask0_4260_56170" style="mask-type:alpha" maskUnits="userSpaceOnUse" x="0" y="0" width="24" height="24">
<rect width="24" height="24" rx="3" fill="white"/>
</mask>
<g mask="url(#mask0_4260_56170)">
<rect width="24" height="24" fill="#0A17A7"/>
<path fill-rule="evenodd" clip-rule="evenodd" d="M-1.09933 -2.2998L9.14216 7.37136V-1.60034H14.8564V7.37234L25.0987 -2.29958L26.3769 0.353342L18.2797 7.99966H23.9993V15.9997H18.2793L26.3773 23.6467L25.0992 26.2997L14.8564 16.6273V25.5997H9.14216V16.6283L-1.09977 26.2999L-2.37793 23.647L5.72036 15.9997H-0.000697851V7.99966H5.71999L-2.37749 0.353117L-1.09933 -2.2998Z" fill="white"/>
<path d="M16.001 7.59873L26.857 -2.3999" stroke="#DB1F35" stroke-linecap="round"/>
<path d="M17.1533 16.4367L26.8852 25.6201" stroke="#DB1F35" stroke-linecap="round"/>
<path d="M6.86112 7.57236L-3.29004 -2.00537" stroke="#DB1F35" stroke-linecap="round"/>
<path d="M7.96212 16.3258L-3.29004 26.7725" stroke="#DB1F35" stroke-linecap="round"/>
<path fill-rule="evenodd" clip-rule="evenodd" d="M0 14.4H10.2857V24H13.7143V14.4H24V9.6H13.7143V0H10.2857V9.6H0V14.4Z" fill="#E6273E"/>
</g>
</g>
<defs>
<clipPath id="clip0_4260_56170">
<rect width="24" height="24" rx="12" fill="white"/>
</clipPath>
</defs>
</svg>
