<svg width="24" height="24" viewBox="0 0 24 24" fill="none" xmlns="http://www.w3.org/2000/svg">
<g clip-path="url(#clip0_4260_56309)">
<mask id="mask0_4260_56309" style="mask-type:alpha" maskUnits="userSpaceOnUse" x="-2" y="0" width="28" height="24">
<rect x="-1.75" y="0.25" width="27.5" height="23.5" rx="1.75" fill="white" stroke="white" stroke-width="0.5"/>
</mask>
<g mask="url(#mask0_4260_56309)">
<rect x="-2" width="28" height="24" rx="2" fill="white"/>
<path fill-rule="evenodd" clip-rule="evenodd" d="M11.9997 16.1942C14.316 16.1942 16.1937 14.3165 16.1937 12.0002C16.1937 9.68388 14.316 7.80615 11.9997 7.80615C9.68339 7.80615 7.80566 9.68388 7.80566 12.0002C7.80566 14.3165 9.68339 16.1942 11.9997 16.1942Z" fill="#E01B41"/>
<mask id="mask1_4260_56309" style="mask-type:alpha" maskUnits="userSpaceOnUse" x="7" y="7" width="10" height="10">
<path fill-rule="evenodd" clip-rule="evenodd" d="M11.9997 16.1942C14.316 16.1942 16.1937 14.3165 16.1937 12.0002C16.1937 9.68388 14.316 7.80615 11.9997 7.80615C9.68339 7.80615 7.80566 9.68388 7.80566 12.0002C7.80566 14.3165 9.68339 16.1942 11.9997 16.1942Z" fill="white"/>
</mask>
<g mask="url(#mask1_4260_56309)">
<path fill-rule="evenodd" clip-rule="evenodd" d="M7.80601 12.5995C9.0043 13.7229 10.8017 14.397 12 12.5995C13.1983 10.8021 15.5949 10.8021 16.194 12.5995C16.7932 14.397 16.194 16.1944 16.194 16.1944H7.80601C7.80601 16.1944 6.60772 11.4761 7.80601 12.5995Z" fill="#0E4B9C"/>
</g>
<path opacity="0.75" fill-rule="evenodd" clip-rule="evenodd" d="M5.40754 6.64182C5.49959 6.48239 5.70345 6.42776 5.86288 6.51981L6.2541 6.74568C6.41353 6.83773 6.46816 7.04159 6.37611 7.20102L5.03184 9.52937C4.93979 9.6888 4.73593 9.74343 4.57649 9.65138L4.18528 9.42551C4.02585 9.33347 3.97122 9.1296 4.06327 8.97017L5.40754 6.64182ZM17.7438 6.74595C17.5843 6.838 17.5297 7.04186 17.6217 7.2013L18.966 9.52965C19.0581 9.68908 19.2619 9.7437 19.4214 9.65165L19.8126 9.42579C19.972 9.33374 20.0266 9.12988 19.9346 8.97044L18.5903 6.64209C18.4983 6.48266 18.2944 6.42804 18.135 6.52008L17.7438 6.74595ZM16.2922 7.58476C16.1328 7.67681 16.0782 7.88067 16.1702 8.0401L17.5145 10.3685C17.6065 10.5279 17.8104 10.5825 17.9698 10.4905L18.3611 10.2646C18.5205 10.1725 18.5751 9.96868 18.4831 9.80925L17.1388 7.4809C17.0467 7.32147 16.8429 7.26684 16.6834 7.35889L16.2922 7.58476ZM4.06327 15.0299C3.97122 14.8704 4.02585 14.6666 4.18528 14.5745L4.57649 14.3486C4.73592 14.2566 4.93979 14.3112 5.03184 14.4707L6.37611 16.799C6.46816 16.9584 6.41353 17.1623 6.2541 17.2543L5.86288 17.4802C5.70345 17.5723 5.49959 17.5176 5.40754 17.3582L4.06327 15.0299ZM5.6368 13.7357C5.47737 13.8278 5.42274 14.0316 5.51479 14.1911L6.85907 16.5194C6.95111 16.6788 7.15498 16.7335 7.31441 16.6414L7.70562 16.4155C7.86506 16.3235 7.91968 16.1196 7.82763 15.9602L6.48336 13.6319C6.39131 13.4724 6.18745 13.4178 6.02802 13.5098L5.6368 13.7357ZM17.5145 13.632C17.6065 13.4726 17.8104 13.4179 17.9698 13.51L18.3611 13.7358C18.5205 13.8279 18.5751 14.0318 18.4831 14.1912L17.1388 16.5195C17.0467 16.679 16.8429 16.7336 16.6834 16.6415L16.2922 16.4157C16.1328 16.3236 16.0782 16.1198 16.1702 15.9603L17.5145 13.632ZM19.4214 14.3488C19.2619 14.2567 19.0581 14.3114 18.966 14.4708L17.6217 16.7991C17.5297 16.9586 17.5843 17.1624 17.7438 17.2545L18.135 17.4804C18.2944 17.5724 18.4983 17.5178 18.5903 17.3583L19.9346 15.03C20.0266 14.8706 19.972 14.6667 19.8126 14.5747L19.4214 14.3488ZM7.31441 7.35862C7.15498 7.26657 6.95111 7.32119 6.85907 7.48062L5.51479 9.80897C5.42274 9.96841 5.47737 10.1723 5.6368 10.2643L6.02802 10.4902C6.18745 10.5822 6.39131 10.5276 6.48336 10.3682L7.82763 8.03983C7.91968 7.8804 7.86506 7.67653 7.70562 7.58448L7.31441 7.35862Z" fill="#262626"/>
</g>
</g>
<defs>
<clipPath id="clip0_4260_56309">
<rect width="24" height="24" rx="12" fill="white"/>
</clipPath>
</defs>
</svg>
