<svg width="24" height="25" viewBox="0 0 24 25" fill="none" xmlns="http://www.w3.org/2000/svg">
<g clip-path="url(#clip0_5578_48021)">
<mask id="mask0_5578_48021" style="mask-type:alpha" maskUnits="userSpaceOnUse" x="-5" y="0" width="34" height="25">
<rect x="-4.75" y="1.08301" width="33.5" height="23.5" rx="1.75" fill="white" stroke="white" stroke-width="0.5"/>
</mask>
<g mask="url(#mask0_5578_48021)">
<mask id="mask1_5578_48021" style="mask-type:alpha" maskUnits="userSpaceOnUse" x="-5" y="0" width="34" height="26">
<rect x="-5" y="0.856934" width="34" height="24.2857" rx="2.42857" fill="white"/>
</mask>
<g mask="url(#mask1_5578_48021)">
<rect x="-5" y="0.856934" width="34" height="24.2857" fill="#128C4B"/>
<path fill-rule="evenodd" clip-rule="evenodd" d="M5 15.32H15.1122V14.4466C15.1122 13.9768 15.6066 13.6712 16.0269 13.8813L16.3762 14.056V15.32H18.2723C18.6213 15.32 18.9043 15.603 18.9043 15.952V16.584C18.9043 17.2821 18.3384 17.8481 17.6403 17.8481H15.7442C15.3952 17.8481 15.1122 17.5651 15.1122 17.2161V16.584H6.52582C6.3582 16.584 6.19744 16.5175 6.07891 16.3989L5 15.32Z" fill="white"/>
<path fill-rule="evenodd" clip-rule="evenodd" d="M5 11.6589C5 11.5751 5.03329 11.4948 5.09256 11.4355L5.40856 11.1195C5.53197 10.9961 5.53197 10.796 5.40856 10.6726L5.09256 10.3566C5.03329 10.2973 5 10.2169 5 10.1331V9.31601C5 9.14148 5.14148 9 5.31601 9H6.02262C6.15595 9 6.26403 9.10808 6.26403 9.24141V9.24141C6.26403 9.49615 6.60743 9.57721 6.72136 9.34937L6.81557 9.16094C6.86489 9.0623 6.9657 9 7.07598 9H8.47607C8.6506 9 8.79208 9.14148 8.79208 9.31601V9.31601C8.79208 9.49053 8.6506 9.63201 8.47607 9.63201H7.84406C7.66953 9.63201 7.52805 9.77349 7.52805 9.94802V9.94802C7.52805 10.1225 7.66954 10.264 7.84406 10.264H8.47607C8.6506 10.264 8.79208 10.4055 8.79208 10.58V12.4761C8.79208 12.6506 8.6506 12.7921 8.47607 12.7921H7.84406C7.66954 12.7921 7.52805 12.6506 7.52805 12.4761V11.8441C7.52805 11.6695 7.66954 11.5281 7.84406 11.5281V11.5281C8.01859 11.5281 8.16007 11.3866 8.16007 11.212V11.212C8.16007 11.0375 8.01859 10.896 7.84406 10.896H7.21205C7.03752 10.896 6.89604 11.0375 6.89604 11.212V12.4761C6.89604 12.6506 6.75456 12.7921 6.58003 12.7921V12.7921C6.40551 12.7921 6.26403 12.6506 6.26403 12.4761V11.8441C6.26403 11.6695 6.12255 11.5281 5.94802 11.5281V11.5281C5.77349 11.5281 5.63201 11.6695 5.63201 11.8441V12.4761C5.63201 12.6506 5.49053 12.7921 5.31601 12.7921V12.7921C5.14148 12.7921 5 12.6506 5 12.4761V11.6589Z" fill="white"/>
<path fill-rule="evenodd" clip-rule="evenodd" d="M15.1123 11.6589C15.1123 11.5751 15.1456 11.4948 15.2049 11.4355L15.5209 11.1195C15.6443 10.9961 15.6443 10.796 15.5209 10.6726L15.2049 10.3566C15.1456 10.2973 15.1123 10.2169 15.1123 10.1331V9.31601C15.1123 9.14148 15.2538 9 15.4283 9H16.1349C16.2682 9 16.3763 9.10808 16.3763 9.24141V9.24141C16.3763 9.49615 16.7197 9.57721 16.8337 9.34937L16.9279 9.16094C16.9772 9.0623 17.078 9 17.1883 9H18.5884C18.7629 9 18.9044 9.14148 18.9044 9.31601V9.31601C18.9044 9.49053 18.7629 9.63201 18.5884 9.63201H17.9564C17.7818 9.63201 17.6404 9.77349 17.6404 9.94802V9.94802C17.6404 10.1225 17.7818 10.264 17.9564 10.264H18.5884C18.7629 10.264 18.9044 10.4055 18.9044 10.58V12.4761C18.9044 12.6506 18.7629 12.7921 18.5884 12.7921H17.9564C17.7818 12.7921 17.6404 12.6506 17.6404 12.4761V11.8441C17.6404 11.6695 17.7818 11.5281 17.9564 11.5281V11.5281C18.1309 11.5281 18.2724 11.3866 18.2724 11.212V11.212C18.2724 11.0375 18.1309 10.896 17.9564 10.896H17.3244C17.1498 10.896 17.0083 11.0375 17.0083 11.212V12.4761C17.0083 12.6506 16.8669 12.7921 16.6923 12.7921V12.7921C16.5178 12.7921 16.3763 12.6506 16.3763 12.4761V11.8441C16.3763 11.6695 16.2349 11.5281 16.0603 11.5281V11.5281C15.8858 11.5281 15.7443 11.6695 15.7443 11.8441V12.4761C15.7443 12.6506 15.6028 12.7921 15.4283 12.7921V12.7921C15.2538 12.7921 15.1123 12.6506 15.1123 12.4761V11.6589Z" fill="white"/>
<path fill-rule="evenodd" clip-rule="evenodd" d="M13.8477 9.94506C13.8477 10.1212 13.749 10.3628 13.6196 10.4922L13.4439 10.6679C13.3179 10.7939 13.3145 10.9948 13.4439 11.1242L13.6196 11.2999C13.7456 11.4259 13.8477 11.6633 13.8477 11.847V12.4731C13.8477 12.6493 13.7125 12.7921 13.5288 12.7921H12.9027C12.7265 12.7921 12.5837 12.6568 12.5837 12.4731V11.847C12.5837 11.6709 12.5254 11.6447 12.4371 11.8212L12.0983 12.4989C12.0173 12.6608 11.8029 12.7921 11.6386 12.7921H10.3688C10.1958 12.7921 10.0557 12.6455 10.0557 12.4761V12.4761C10.0557 12.3015 10.1909 12.1601 10.3746 12.1601H11.0007C11.1769 12.1601 11.3197 12.0135 11.3197 11.8441V11.8441C11.3197 11.6695 11.1844 11.5281 11.0007 11.5281H10.3746C10.1985 11.5281 10.0557 11.3921 10.0557 11.2181V9.30999C10.0557 9.13879 10.1909 9 10.3746 9H11.0007C11.1769 9 11.3197 9.13527 11.3197 9.31897V9.94506C11.3197 10.1212 11.1731 10.264 11.0037 10.264V10.264C10.8292 10.264 10.6877 10.4106 10.6877 10.58V10.58C10.6877 10.7546 10.823 10.896 11.0066 10.896H11.6327C11.8089 10.896 11.9517 10.7473 11.9517 10.5829V9.31309C11.9517 9.14018 12.0983 9 12.2677 9V9C12.4422 9 12.5837 9.13527 12.5837 9.31897V9.94506C12.5837 10.1212 12.7303 10.264 12.8997 10.264V10.264C13.0743 10.264 13.2157 10.1288 13.2157 9.94506V9.31897C13.2157 9.14281 13.3623 9 13.5317 9V9C13.7063 9 13.8477 9.13527 13.8477 9.31897V9.94506V9.94506Z" fill="white"/>
</g>
</g>
</g>
<defs>
<clipPath id="clip0_5578_48021">
<rect y="0.833008" width="24" height="24" rx="12" fill="white"/>
</clipPath>
</defs>
</svg>
