<svg width="24" height="24" viewBox="0 0 24 24" fill="none" xmlns="http://www.w3.org/2000/svg">
<g clip-path="url(#clip0_4260_56256)">
<mask id="mask0_4260_56256" style="mask-type:alpha" maskUnits="userSpaceOnUse" x="-5" y="0" width="34" height="24">
<rect x="-4.75" y="0.25" width="33.5" height="23.5" rx="1.75" fill="white" stroke="white" stroke-width="0.5"/>
</mask>
<g mask="url(#mask0_4260_56256)">
<rect x="-5" width="34" height="24" rx="2" fill="white"/>
<path fill-rule="evenodd" clip-rule="evenodd" d="M-5 8H29V0H-5V8Z" fill="#1B57C4"/>
<path fill-rule="evenodd" clip-rule="evenodd" d="M-5 24H29V16H-5V24Z" fill="#1B57C4"/>
<path fill-rule="evenodd" clip-rule="evenodd" d="M10.08 9.44039C9.30322 10.0242 8.80078 10.9535 8.80078 12.0001C8.80078 13.7674 10.2335 15.2001 12.0008 15.2001C13.7681 15.2001 15.2008 13.7674 15.2008 12.0001C15.2008 10.9529 14.6978 10.0232 13.9203 9.43945L12.8 12.8003H11.2L10.08 9.44039Z" fill="url(#paint0_linear_4260_56256)"/>
<path fill-rule="evenodd" clip-rule="evenodd" d="M12 9L13 13H11L12 9Z" fill="#F9C92E"/>
</g>
<mask id="mask1_4260_56256" style="mask-type:alpha" maskUnits="userSpaceOnUse" x="0" y="0" width="34" height="24">
<rect width="33.6" height="24" rx="1.6" fill="white"/>
</mask>
<g mask="url(#mask1_4260_56256)">
<rect width="33.6" height="24" fill="#157CBB"/>
<path fill-rule="evenodd" clip-rule="evenodd" d="M0 14.4H9.6V24H14.4V14.4H33.6V9.6H14.4V0H9.6V9.6H0V14.4Z" fill="#FFD34D"/>
</g>
</g>
<defs>
<linearGradient id="paint0_linear_4260_56256" x1="8.80078" y1="9.43945" x2="8.80078" y2="15.2001" gradientUnits="userSpaceOnUse">
<stop stop-color="#3C7839"/>
<stop offset="1" stop-color="#31642E"/>
</linearGradient>
<clipPath id="clip0_4260_56256">
<rect width="24" height="24" rx="12" fill="white"/>
</clipPath>
</defs>
</svg>
